# xmcd
#
# Track frame offsets:
#	150
#	18424
#	35538
#	53350
#	74984
#	97590
#	115368
#	133015
#	151165
#	170223
#	185072
#	211298
#	232532
#	247285
#	276754
#	288445
#	301000
#
# Disc length: 4254 seconds
#
# Revision: 0
# Processed by: cddbd v1.4PL0 Copyright (c) Steve Scherf et al.
# Submitted via: dBpowerAMP V4.0
#
DISCID=ee109c11
DTITLE=MULTI - MUZICA
DYEAR=1232
DGENRE=Dance
TTITLE0=IN DA CLUB
TTITLE1=SANDSTORM
TTITLE2=MARIA
TTITLE3=FLUTT
TTITLE4=EPILOG
TTITLE5=CAII
TTITLE6=DASH
TTITLE7=POWER OF LOVE
TTITLE8=FLY
TTITLE9=DISCO
TTITLE10=HEAR
TTITLE11=SOMEDAAY
TTITLE12=E
TTITLE13=BALLADE
TTITLE14=CARELES WISPER
TTITLE15=POWER OF LOVE
TTITLE16=ABC
EXTD=
EXTT0=
EXTT1=
EXTT2=
EXTT3=
EXTT4=
EXTT5=
EXTT6=
EXTT7=
EXTT8=
EXTT9=
EXTT10=
EXTT11=
EXTT12=
EXTT13=
EXTT14=
EXTT15=
EXTT16=
PLAYORDER=
